PathFileType	4	(X/Y/Z)	C:\Users\WrightLab\Desktop\Jo\P1_boxCal18.trc
DataRate	CameraRate	NumFrames	NumMarkers	Units	OrigDataRate	OrigDataStartFrame	OrigNumFrames
100.00	100.00	       16	19	mm	100.00	280	       559
Frame#	Time	Headset_Front			Headset_Back			Headset_Left			Headset_Right			Left_Shoulder			Right_Shoulder			Sternum			C7			Left Elbow			Right Elbow			Left Wrist			Right Wrist			Left ASIS			Right ASIS			S2			Left Knee			Right Knee			Left Ankle			Right Ankle			
		X1	Y1	Z1	X2	Y2	Z2	X3	Y3	Z3	X4	Y4	Z4	X5	Y5	Z5	X6	Y6	Z6	X7	Y7	Z7	X8	Y8	Z8	X9	Y9	Z9	X10	Y10	Z10	X11	Y11	Z11	X12	Y12	Z12	X13	Y13	Z13	X14	Y14	Z14	X15	Y15	Z15	X16	Y16	Z16	X17	Y17	Z17	X18	Y18	Z18	X19	Y19	Z19	

280	2.790	-61.94359	1418.30835	1013.34546	-203.51074	1531.59351	764.33301	-46.69605	1475.69226	812.46381	-205.26042	1444.33923	975.41187	-15.42180	1286.98987	693.31866	-304.72229	1274.65479	940.35071	-79.39636	1193.56409	938.68695	-223.85590	1279.93677	725.95984	9.36736	971.72668	603.90924	-382.92236	1006.32941	1003.24127	120.70644	804.33405	584.84943	-333.34225	825.73676	1170.66968	28.79536	917.68848	902.34009	-141.20522	903.82751	1010.33307	-224.23514	895.34186	692.97504	123.21425	507.97052	865.41260	-253.03305	451.37555	912.15009	196.08217	144.33551	897.35455	-273.04260	99.76840	813.39618	
281	2.800	-57.22563	1415.99329	1021.37885	-196.24731	1529.97595	771.30237	-39.93162	1473.80737	821.12354	-200.13737	1442.31335	982.44360	-8.29358	1285.86145	702.24939	-299.15524	1272.76086	946.38660	-74.46317	1192.75391	946.71802	-216.99857	1277.92175	733.15778	15.65258	970.36621	613.15076	-377.69705	1005.39624	1010.36450	127.01391	802.77820	592.09235	-327.15231	825.71643	1179.25647	34.24493	915.82306	911.78455	-136.13966	901.78821	1018.15601	-215.65704	893.16010	699.73096	126.35048	505.10394	872.45911	-249.62321	450.01587	916.13727	210.99010	147.45111	918.57922	-272.37592	100.59094	813.76404	
282	2.810	-52.80778	1413.50964	1029.11047	-189.71420	1528.86279	779.07166	-33.83379	1472.33301	830.74908	-195.29317	1440.09155	989.58008	-0.15920	1284.55615	711.54120	-294.16415	1272.06934	953.19257	-69.23146	1191.38232	955.31110	-209.45006	1276.62415	739.73535	22.47730	969.64825	620.77643	-371.34183	1003.87476	1016.71222	132.30608	801.77789	599.10059	-321.16373	825.66998	1187.69189	40.06296	915.28394	921.83405	-131.14714	900.14197	1024.16089	-207.37325	891.74670	706.62225	130.86253	502.07376	879.14661	-245.63487	448.75711	920.17072	224.03123	150.63667	941.04114	-271.00610	99.99561	813.96344	
283	2.820	-48.17643	1411.74817	1038.15845	-182.16064	1527.49060	786.15387	-27.24777	1470.87878	840.05981	-190.51901	1437.98096	996.61676	7.49829	1282.77905	720.15637	-287.94214	1270.22937	958.95605	-63.93330	1190.14514	963.37714	-201.56085	1274.75208	746.53015	28.72583	967.93427	629.41089	-364.81259	1001.60144	1022.83557	138.38260	799.87878	607.31537	-315.38925	825.27692	1195.48547	46.20357	914.10120	930.90997	-126.57307	897.89166	1031.42407	-198.71172	890.00378	713.86755	137.21443	501.28537	886.92505	-241.70647	447.75934	923.82178	234.87900	153.46562	961.89435	-270.82834	100.75433	814.27423	
284	2.830	-43.41817	1409.90930	1046.14868	-175.33914	1526.16602	793.63550	-20.64742	1469.53259	847.79144	-185.62051	1436.06848	1003.67218	15.13930	1281.31018	728.48645	-282.77301	1268.87109	965.50616	-58.04626	1188.69031	971.52319	-193.97020	1273.08740	753.77228	35.63847	966.80133	638.29846	-359.05457	1000.57367	1028.78174	144.31166	798.01874	615.11511	-309.79007	824.57800	1202.61401	52.12901	912.79199	939.73840	-121.26520	897.11536	1039.46826	-191.68048	888.92664	721.12939	145.76671	498.72739	894.39398	-237.26604	446.66583	927.66034	242.68008	154.66002	980.21259	-270.14917	100.80836	814.56940	
285	2.840	-39.08699	1407.55090	1055.20349	-167.72214	1524.78979	800.67657	-13.92666	1467.92554	857.01807	-180.28987	1434.05261	1010.40649	23.40176	1279.69202	737.56830	-276.70950	1266.92981	971.69763	-52.19305	1186.88855	979.36700	-186.12079	1271.63892	760.26178	42.92781	964.63281	649.27332	-353.17325	998.65363	1034.69629	150.84532	796.33105	623.50146	-304.11401	823.64313	1209.18616	58.35173	911.48816	950.81921	-115.68426	895.95178	1048.19446	-182.86353	887.33362	728.67151	153.93671	496.21295	903.03235	-233.74153	447.15573	930.86316	250.42168	156.83707	996.60059	-269.93027	102.77384	815.18158	
286	2.850	-33.86966	1405.99414	1063.11450	-160.82823	1523.90881	808.33350	-7.18363	1467.04370	865.82227	-175.27840	1432.60559	1017.26868	31.79360	1278.85876	746.38660	-270.80222	1265.40845	978.17346	-46.52506	1186.33130	988.29266	-178.65962	1270.74524	767.69611	50.24501	962.46307	658.32318	-347.23077	996.84839	1040.18506	157.66162	794.09332	632.63397	-298.83716	822.27307	1215.31848	64.69956	910.31799	959.66406	-109.88769	895.77704	1056.93384	-174.90616	885.47504	735.91309	160.57091	495.28748	912.69318	-227.86867	445.85529	934.59613	255.91710	157.63393	1010.43945	-270.13098	104.69046	815.78210	
287	2.860	-29.27634	1404.29980	1071.27490	-152.19186	1521.81165	815.95337	-0.77965	1466.01550	875.13983	-169.71114	1430.60632	1023.98914	39.37832	1277.23511	755.36835	-264.66727	1263.79651	984.48639	-40.97347	1184.70117	996.49695	-170.84862	1268.65283	774.00269	57.64403	961.85425	665.63879	-341.08383	995.14429	1045.01794	165.18384	792.70422	641.06940	-293.86081	820.80121	1221.43445	71.50976	908.96381	967.89056	-103.16235	894.29944	1065.16003	-166.21321	884.33649	743.76965	167.03247	495.11313	922.79230	-222.14590	445.74274	938.63684	260.85562	156.45308	1022.24579	-269.89127	106.01565	816.21082	
288	2.870	-24.92210	1403.42419	1079.55579	-144.83733	1520.73279	823.25842	5.99148	1464.80469	883.17529	-164.67375	1429.32507	1031.07642	47.87915	1275.99365	764.36481	-258.81973	1262.07642	990.94946	-33.52623	1183.17798	1004.49756	-162.49913	1267.57117	781.30005	65.85244	961.12683	673.16254	-335.04962	993.35461	1050.14514	172.14073	791.10052	650.15662	-288.81723	818.73828	1226.62744	78.43692	908.64252	978.39215	-97.62700	892.57074	1072.11121	-158.42754	882.77032	752.09387	173.36615	495.49207	932.42120	-215.76311	445.24188	943.49200	264.48422	154.09418	1029.94275	-267.75531	106.84721	816.51129	
289	2.880	-20.54985	1401.89392	1087.78223	-137.42455	1520.06458	830.38818	13.21052	1464.23718	892.09113	-159.47644	1427.94104	1037.44373	56.49775	1274.46582	772.78741	-252.92378	1262.26501	996.10760	-27.32751	1182.52258	1012.44897	-154.53836	1266.27087	788.58923	74.45126	959.82587	682.81067	-328.93076	991.68115	1054.88440	179.68349	789.69531	660.13959	-283.91763	816.58228	1231.06165	84.99940	907.32086	987.94995	-90.54967	892.05286	1081.81287	-150.64772	881.80115	759.56512	179.99532	494.63120	943.36920	-209.00034	444.86597	948.21484	268.08618	150.86124	1036.29016	-267.11868	108.91372	817.33026	
290	2.890	-15.64475	1401.12085	1096.58643	-130.55821	1519.88623	836.38440	19.88277	1463.77710	901.11932	-154.08043	1426.74707	1044.26697	64.64780	1273.92371	781.53534	-246.48961	1260.96472	1002.40271	-21.59945	1181.86646	1021.22980	-146.63055	1265.28821	795.48230	82.60843	958.52991	693.00848	-322.82623	989.79761	1058.79102	188.44846	788.18433	670.66040	-279.17413	814.09143	1234.96887	92.92883	907.22687	996.51764	-84.93233	890.82257	1090.25183	-142.06700	880.42200	768.43817	185.99699	494.33887	954.27032	-202.09332	443.95096	953.38379	270.39383	145.95851	1041.67590	-266.40860	111.66275	818.57935	
291	2.900	-11.04276	1400.14111	1104.46631	-123.11990	1518.89539	843.89398	26.74917	1463.00110	910.11377	-148.73599	1425.34595	1050.69995	73.24778	1272.50989	790.91553	-240.14981	1260.15417	1008.67029	-15.39922	1181.23071	1029.35681	-137.73151	1264.00024	802.84625	91.67226	958.03033	700.88733	-316.82809	988.96594	1063.30518	196.70132	786.39685	681.19006	-274.60629	811.43793	1238.73718	99.65319	906.80939	1006.02045	-78.32585	890.18805	1097.88440	-134.12215	879.00629	777.00165	192.88309	493.04807	964.79877	-195.36272	443.74039	959.23853	271.29205	139.95703	1043.82483	-269.30142	116.93850	819.20551	
292	2.910	-6.09746	1399.27539	1113.28784	-114.38800	1517.64990	851.23492	33.60458	1462.65747	918.71478	-143.80258	1424.76245	1057.43835	81.27521	1272.19812	799.34271	-233.34746	1259.34827	1015.06146	-7.91188	1180.52405	1037.06311	-129.67957	1263.45264	809.67883	100.10725	956.21698	710.82202	-310.72012	987.67706	1067.34656	205.55524	785.58716	692.49359	-270.49515	808.79321	1241.36780	107.26412	906.56256	1015.52161	-70.89540	889.00189	1105.73352	-125.25572	878.54382	785.18695	199.30679	490.99881	976.08191	-188.10078	442.82733	965.66266	271.89270	133.57585	1048.24744	-267.39041	119.39407	821.21674	
293	2.920	-1.63475	1399.40381	1121.04065	-107.08407	1517.57043	858.76703	40.48746	1463.00366	927.44348	-138.36130	1423.92395	1063.89038	89.72651	1271.70569	808.15997	-226.53755	1258.59973	1021.16357	-0.98761	1180.52307	1044.50269	-121.62528	1263.46899	817.14746	109.30439	955.38623	719.70111	-304.32358	986.13300	1070.90942	214.27592	784.82794	702.82678	-266.29166	806.12769	1244.07227	114.37781	906.05634	1024.94653	-64.75672	889.10352	1114.89783	-116.50702	877.98590	793.41864	205.30386	488.99933	986.55389	-181.25275	441.55167	973.08191	271.73105	130.17928	1053.49329	-265.56918	123.24222	822.87921	
294	2.930	2.86952	1399.02502	1129.23987	-98.84425	1518.05249	865.58636	47.41583	1463.13196	936.50226	-133.42508	1423.79065	1070.38464	98.01373	1271.37732	816.64386	-219.91081	1258.45850	1027.50073	5.39435	1180.48486	1054.30042	-113.18379	1262.90417	823.96075	117.93353	954.98602	729.37885	-298.72702	985.66827	1074.90393	224.30377	783.65466	715.13330	-262.51895	802.89264	1246.10742	121.94978	905.78619	1033.81592	-57.63382	888.01221	1123.17297	-108.20965	877.69647	800.46320	211.87158	486.93695	998.01001	-173.93591	440.55484	980.42279	274.99347	130.99107	1056.86865	-263.43915	127.51459	825.08124	
295	2.940	7.10987	1399.60864	1138.22412	-91.19019	1519.06934	873.24725	54.37650	1464.69763	945.68158	-127.85722	1423.56396	1076.89990	106.51318	1271.49817	825.14990	-213.54280	1258.80310	1033.56348	12.76083	1181.08948	1062.05823	-104.67902	1263.16467	830.83282	127.50517	954.68079	739.11835	-292.45621	984.88690	1078.27234	233.46301	783.35840	726.50934	-258.78613	800.30658	1247.44922	129.21863	906.16675	1043.01758	-51.71045	887.54364	1130.53882	-99.49683	877.28680	808.72064	218.16324	487.44675	1007.48206	-166.31287	439.63681	988.99884	279.54230	131.50215	1059.66003	-260.58182	132.05208	827.92932	
